<?xml version="1.0" encoding="utf-8"?>
<!-- Generator: Adobe Illustrator 24.1.0, SVG Export Plug-In . SVG Version: 6.00 Build 0)  -->
<svg version="1.1" id="Layer_1" xmlns="http://www.w3.org/2000/svg" xmlns:xlink="http://www.w3.org/1999/xlink" x="0px" y="0px"
	 viewBox="0 0 265 259" style="enable-background:new 0 0 265 259;" xml:space="preserve">
<style type="text/css">
	.st0{fill:#1175BC;}
	.st1{fill:#8CC640;}
	.st2{fill:#FBFCFD;}
</style>
<path class="st0" d="M136.8,13.8c21.6,9.6,43.3,19.3,64.9,28.9c12.1,5.4,24.2,10.7,37.1,16.3c-17.5,8.8-34.3,17.3-51.1,25.8
	c-16.3,8.2-32.5,16.4-48.8,24.7c-2,1-3.7,1.5-6,0.4C99.6,93,66.3,76.2,32.2,59.1c10.7-4.7,20.8-9.1,31-13.5
	c22.8-9.9,45.6-19.9,68.4-29.8c1.2-0.5,2.6-0.6,3.3-2C135.5,13.8,136.1,13.8,136.8,13.8z M95.7,43.7c-12.9,13.1-10.5,32.6,5.7,43.7
	c11.2,7.6,23.7,10.8,37.3,9.3c12.5-1.4,24-5.1,33.6-13.6c15-13.3,14.9-32.9-0.9-45.1c-16.7-13-35.5-13.4-55.6-7.7
	c3.3,1.5,4.9,2,7.2,1.4c10.3-2.3,19.2,1.6,27.7,6.7c2.6,1.6,4.6,3.8,6.1,6.5c3.6,6.2,1.2,12-5.6,14c-11.9,3.6-21.9-4.6-20.5-17.1
	c0.3-3.2-0.4-4.1-3.5-4.7c-4.1-0.7-4.7,1.4-4.6,4.8c-2.8-1.2-1.8-5.5-5.6-5.4c-3.1,0.1-6.3-0.4-9.5-0.6c-0.9-0.1-2-0.4-2.6,0.8
	c-1.4,2.5,0,9.8,3.6,12.5c-5.3-1.5-4.8,1.3-4.8,3.8c0,3.3,2.6,1.5,4.1,1.9c4.9,1.3,10.3,0.6,15,3c5.5,2.8,8.7,7.4,7.6,11.6
	c-1.1,4.4-5.8,7.2-11.8,7.3C105.3,77,89.4,62.4,96.4,44.3c0-0.4,0.3-1.1,0.1-1.2C96,42.7,95.9,43.3,95.7,43.7z"/>
<path class="st1" d="M27.9,63.8c34.3,17.2,68.5,34.4,102.9,51.5c2.4,1.2,3.3,2.6,3.3,5.3c-0.4,40.6-0.8,81.2-1,121.7
	c0,5-2.1,3.1-4.3,1.8c-32.4-18.9-64.8-37.8-97.2-56.7c-1.1-0.7-2.4-1.1-3.5-1.7C27.9,145,27.9,104.4,27.9,63.8z M40.8,77.7
	c-0.6,0.2-1.2,0.3-1.9,0.5c0,35.3,0,70.5,0,105.8c0,1.9,0.7,3,2.4,3.8c11.2,5.5,22.1,11.5,33.5,16.6c6.2,2.8,13,5.6,19.7,6
	c13.9,0.7,23.4-7.1,26.3-20.9c5.4-25.9-1.2-49.1-17.3-69.7C87.1,99,63.4,89.1,40.8,77.7z"/>
<path class="st0" d="M243.7,185.7c-22.5,13.1-45.1,26.2-67.6,39.3c-11.9,6.9-23.7,13.8-35.6,20.8c-1.2-2-0.7-3.6-0.7-5.2
	c0-39.8,0-79.6-0.1-119.4c0-3,0.7-4.8,3.6-6.2c33.5-17,67-34.1,100.5-51.2C243.7,104.4,243.7,145,243.7,185.7z M202.4,133.7
	c-8.6-9.4-16.2-17.5-23.5-25.9c-2.1-2.4-3.7-2.5-6.3-1c-6.3,3.7-12.7,7.3-19.1,10.7c-2,1.1-2.7,2.4-2.7,4.7c0,35-0.1,69.9-0.4,104.9
	c0,4.2,1.4,4.5,4.6,2.6c5.4-3.4,11.1-6.5,16.9-9.3c6.1-2.9,10.1-6.5,9.2-14.6c-1-9.2-0.3-18.6-0.2-28c0-1.5-0.6-3.2,0.7-4.7
	c7.8,8.3,15.5,16.4,22.9,24.7c2.1,2.3,3.9,2.7,6.3,1c5.9-4,12.3-7.3,18.6-10.5c2.6-1.3,3.5-2.9,3.5-5.8c0.1-34.8,0.2-69.6,0.4-104.4
	c0-3.6-0.8-4.5-4.1-2.6c-7.3,4.2-14.7,8.4-22.3,12.3c-3.4,1.7-4.7,3.7-4.6,7.7C202.6,107.8,202.4,120.1,202.4,133.7z"/>
<path class="st2" d="M96.4,44.3c-7,18.1,8.9,32.8,22.3,32.6c6-0.1,10.7-3,11.8-7.3c1-4.2-2.1-8.8-7.6-11.6c-4.8-2.4-10.1-1.7-15-3
	c-1.5-0.4-4,1.4-4.1-1.9c0-2.5-0.5-5.3,4.8-3.8c-3.6-2.7-5.1-10-3.6-12.5c0.7-1.2,1.7-0.9,2.6-0.8c3.2,0.2,6.3,0.7,9.5,0.6
	c3.7-0.1,2.7,4.2,5.6,5.4c-0.2-3.4,0.5-5.5,4.6-4.8c3.2,0.6,3.9,1.5,3.5,4.7c-1.4,12.5,8.6,20.7,20.5,17.1c6.8-2,9.2-7.8,5.6-14
	c-1.5-2.6-3.6-4.9-6.1-6.5c-8.5-5.1-17.3-9-27.7-6.7c-2.4,0.5-3.9,0.1-7.2-1.4c20.1-5.6,38.9-5.2,55.6,7.7
	c15.8,12.3,15.9,31.8,0.9,45.1c-9.6,8.5-21.1,12.3-33.6,13.6c-13.6,1.5-26.1-1.7-37.3-9.3c-16.2-11-18.6-30.6-5.7-43.7
	C96,43.9,96.2,44.1,96.4,44.3z"/>
<path class="st2" d="M95.7,43.7c0.1-0.4,0.3-0.9,0.8-0.6c0.2,0.1-0.1,0.8-0.1,1.2C96.2,44.1,96,43.9,95.7,43.7z"/>
<path class="st2" d="M40.8,77.7c22.6,11.5,46.3,21.3,62.6,42.1c16.1,20.6,22.7,43.8,17.3,69.7c-2.9,13.8-12.3,21.6-26.3,20.9
	c-6.7-0.3-13.5-3.2-19.7-6c-11.3-5.1-22.3-11.1-33.5-16.6c-1.7-0.9-2.4-1.9-2.4-3.8c0-35.3,0-70.5,0-105.8
	C39.6,78,40.2,77.8,40.8,77.7z M53.7,97.7c0,27.2,0,53.5,0,79.8c0,1.7-0.1,3.2,1.9,4.2c8.8,4.4,17.2,9.5,26.9,11.6
	c13.1,2.9,21.8-2.6,24.5-15.8c1.8-8.9,1.5-17.9-0.7-26.7C99.4,123.1,78.8,108.9,53.7,97.7z"/>
<path class="st2" d="M202.4,133.7c0-13.6,0.2-25.9-0.1-38.2c-0.1-4,1.3-5.9,4.6-7.7c7.5-3.9,14.9-8.1,22.3-12.3
	c3.4-1.9,4.2-1.1,4.1,2.6c-0.2,34.8-0.4,69.6-0.4,104.4c0,2.9-0.9,4.5-3.5,5.8c-6.4,3.2-12.7,6.5-18.6,10.5c-2.4,1.6-4.2,1.3-6.3-1
	c-7.5-8.3-15.2-16.4-22.9-24.7c-1.3,1.5-0.7,3.2-0.7,4.7c-0.1,9.3-0.8,18.7,0.2,28c0.9,8.1-3.1,11.7-9.2,14.6
	c-5.8,2.7-11.4,5.9-16.9,9.3c-3.1,2-4.6,1.7-4.6-2.6c0.2-35,0.3-69.9,0.4-104.9c0-2.3,0.7-3.6,2.7-4.7c6.5-3.4,12.9-7,19.1-10.7
	c2.6-1.5,4.2-1.4,6.3,1C186.3,116.2,193.9,124.4,202.4,133.7z M215.8,174.6c-7.6-4.4-11.5-11.1-16.6-16.6
	c-8.1-8.7-16.3-17.3-24.1-26.4c-1.7-2-2.8-4.4-5.4-5.7c-1.3-0.7-2.4-2-3.9-1.4c-1.8,0.7-1,2.6-1,4c-0.1,25.6-0.2,51.3-0.2,76.9
	c0,1.3-0.8,3.6,0.9,3.8c2.5,0.3,1.8-2.3,1.8-3.7c0.1-9.8,0.1-19.6,0.2-29.5c0.1-13.8,0.1-27.6,0.2-41.5c0-1-0.6-2.5,0.9-3
	c0.4-0.1,1.3,0.4,1.6,0.8c3.2,4.9,8,8.4,11.7,12.8c9.9,11.8,21,22.4,31,34.1c1,1.2,1.9,2.9,4.1,2c2-0.8,1.9-2.4,1.9-4.1
	c0.1-26.1,0.3-52.3,0.4-78.4c0-1.1,1.1-3.1-1-3.2c-2-0.1-2.5,1.6-2.5,3.6c0.1,6.2,0,12.3,0,18.5
	C215.8,136.5,215.8,155.2,215.8,174.6z"/>
<path class="st1" d="M53.7,97.7c25.1,11.2,45.7,25.4,52.6,53.1c2.2,8.8,2.6,17.8,0.7,26.7c-2.7,13.2-11.4,18.7-24.5,15.8
	c-9.7-2.1-18.2-7.2-26.9-11.6c-1.9-1-1.9-2.5-1.9-4.2C53.7,151.3,53.7,125,53.7,97.7z M57.1,103.2c0,24.9,0,48.7,0,72.5
	c0,1.5-0.1,2.9,1.6,3.8c8.1,4.2,16.1,8.7,25.4,9.9c9.4,1.2,16.3-3.4,18.7-12.6c2.4-9.6,2-19.2-0.7-28.6
	C95.6,125.7,78.8,113.2,57.1,103.2z"/>
<path class="st0" d="M215.8,174.6c0-19.4,0-38.1,0-56.9c0-6.2,0.1-12.3,0-18.5c0-1.9,0.5-3.6,2.5-3.6c2,0.1,1,2.1,1,3.2
	c-0.1,26.1-0.2,52.3-0.4,78.4c0,1.7,0.1,3.3-1.9,4.1c-2.2,0.9-3-0.8-4.1-2c-10-11.7-21.1-22.3-31-34.1c-3.7-4.4-8.5-7.9-11.7-12.8
	c-0.3-0.5-1.2-1-1.6-0.8c-1.6,0.5-0.9,1.9-0.9,3c-0.1,13.8-0.2,27.6-0.2,41.5c0,9.8,0,19.6-0.2,29.5c0,1.4,0.7,4-1.8,3.7
	c-1.8-0.2-0.9-2.5-0.9-3.8c0-25.6,0.1-51.3,0.2-76.9c0-1.4-0.8-3.2,1-4c1.5-0.6,2.6,0.7,3.9,1.4c2.6,1.3,3.7,3.7,5.4,5.7
	c7.7,9.1,16,17.7,24.1,26.4C204.2,163.5,208.2,170.2,215.8,174.6z"/>
<path class="st2" d="M57.1,103.2c21.7,9.9,38.5,22.4,45,45c2.7,9.4,3.2,19.1,0.7,28.6c-2.4,9.2-9.3,13.8-18.7,12.6
	c-9.3-1.2-17.3-5.7-25.4-9.9c-1.7-0.9-1.6-2.3-1.6-3.8C57.1,151.9,57.1,128.1,57.1,103.2z M92.2,158c0.2-14.3-6.7-24.6-18.5-32
	c-1.8-1.1-3.6-2.4-3.6,1.5c0,13.6-0.1,27.2-0.2,40.9c0,1.9,0.7,2.9,2.4,3.8c11.5,6,19.3,1.7,19.9-11.2C92.2,160,92.2,159,92.2,158z"
	/>
<path class="st1" d="M92.2,158c0,1,0,2,0,3c-0.6,12.9-8.4,17.2-19.9,11.2c-1.7-0.9-2.4-1.9-2.4-3.8c0.1-13.6,0.2-27.2,0.2-40.9
	c0-3.9,1.8-2.6,3.6-1.5C85.4,133.4,92.3,143.6,92.2,158z"/>
</svg>
